<mxfile host="app.diagrams.net" modified="2021-03-03T02:28:24.788Z" agent="5.0 (Windows NT 10.0; Win64; x64) AppleWebKit/537.36 (KHTML, like Gecko) Chrome/88.0.4324.182 Safari/537.36 Edg/88.0.705.74" etag="klm4uMSlveFFKWQIqdZT" version="14.4.3" type="github">
  <diagram id="-vE1XrQTu6-hWliuFBco" name="Page-1">
    <mxGraphModel dx="1038" dy="580" grid="1" gridSize="10" guides="1" tooltips="1" connect="1" arrows="1" fold="1" page="1" pageScale="1" pageWidth="827" pageHeight="1169" math="0" shadow="0">
      <root>
        <mxCell id="0" />
        <mxCell id="1" parent="0" />
        <mxCell id="9LCNKZBkyJQQJliPcj9z-1" value="Open Banking&lt;br&gt;Platform" style="rounded=1;whiteSpace=wrap;html=1;" parent="1" vertex="1">
          <mxGeometry x="300" y="20" width="160" height="100" as="geometry" />
        </mxCell>
        <mxCell id="9LCNKZBkyJQQJliPcj9z-4" style="rounded=0;orthogonalLoop=1;jettySize=auto;html=1;entryX=0;entryY=0.25;entryDx=0;entryDy=0;" parent="1" source="9LCNKZBkyJQQJliPcj9z-3" edge="1">
          <mxGeometry relative="1" as="geometry">
            <mxPoint x="300" y="70" as="targetPoint" />
          </mxGeometry>
        </mxCell>
        <mxCell id="9LCNKZBkyJQQJliPcj9z-5" value="Read" style="edgeLabel;html=1;align=center;verticalAlign=middle;resizable=0;points=[];" parent="9LCNKZBkyJQQJliPcj9z-4" vertex="1" connectable="0">
          <mxGeometry x="0.0667" y="1" relative="1" as="geometry">
            <mxPoint y="-14" as="offset" />
          </mxGeometry>
        </mxCell>
        <mxCell id="9LCNKZBkyJQQJliPcj9z-3" value="API Clients" style="outlineConnect=0;fontColor=#232F3E;gradientColor=none;strokeColor=#232F3E;fillColor=#ffffff;dashed=0;verticalLabelPosition=bottom;verticalAlign=top;align=center;html=1;fontSize=12;fontStyle=0;aspect=fixed;shape=mxgraph.aws4.resourceIcon;resIcon=mxgraph.aws4.client;" parent="1" vertex="1">
          <mxGeometry x="110" y="40" width="60" height="60" as="geometry" />
        </mxCell>
        <mxCell id="9LCNKZBkyJQQJliPcj9z-8" style="edgeStyle=none;rounded=0;orthogonalLoop=1;jettySize=auto;html=1;entryX=1;entryY=0.25;entryDx=0;entryDy=0;startArrow=classic;startFill=1;" parent="1" source="9LCNKZBkyJQQJliPcj9z-7" edge="1">
          <mxGeometry relative="1" as="geometry">
            <mxPoint x="460" y="70" as="targetPoint" />
          </mxGeometry>
        </mxCell>
        <mxCell id="9LCNKZBkyJQQJliPcj9z-9" value="Write" style="edgeLabel;html=1;align=center;verticalAlign=middle;resizable=0;points=[];" parent="9LCNKZBkyJQQJliPcj9z-8" vertex="1" connectable="0">
          <mxGeometry x="-0.0334" y="-1" relative="1" as="geometry">
            <mxPoint y="-13.8" as="offset" />
          </mxGeometry>
        </mxCell>
        <mxCell id="bNikA0JZH8vHwwaKupcI-2" value="Read" style="edgeLabel;html=1;align=center;verticalAlign=middle;resizable=0;points=[];" vertex="1" connectable="0" parent="9LCNKZBkyJQQJliPcj9z-8">
          <mxGeometry x="-0.18" y="1" relative="1" as="geometry">
            <mxPoint x="-38" y="-16.77" as="offset" />
          </mxGeometry>
        </mxCell>
        <mxCell id="9LCNKZBkyJQQJliPcj9z-7" value="On-premises&lt;br&gt;Core Banking" style="outlineConnect=0;fontColor=#232F3E;gradientColor=none;strokeColor=#232F3E;fillColor=#ffffff;dashed=0;verticalLabelPosition=bottom;verticalAlign=top;align=center;html=1;fontSize=12;fontStyle=0;aspect=fixed;shape=mxgraph.aws4.resourceIcon;resIcon=mxgraph.aws4.traditional_server;" parent="1" vertex="1">
          <mxGeometry x="580" y="37" width="65" height="65" as="geometry" />
        </mxCell>
      </root>
    </mxGraphModel>
  </diagram>
</mxfile>
